<?xml version="1.0" standalone="no"?>
<!DOCTYPE svg PUBLIC "-//W3C//DTD SVG 20010904//EN"
 "http://www.w3.org/TR/2001/REC-SVG-20010904/DTD/svg10.dtd">
<svg version="1.0" xmlns="http://www.w3.org/2000/svg"
 width="25.000000pt" height="25.000000pt" viewBox="0 0 256.000000 256.000000"
 preserveAspectRatio="xMidYMid meet">

<g transform="translate(0.000000,256.000000) scale(0.100000,-0.100000)"
fill="#00000066" stroke="none">
<path d="M125 2541 c-84 -39 -125 -110 -125 -218 0 -340 105 -749 272 -1063
116 -220 235 -379 422 -566 187 -187 346 -306 566 -422 315 -168 727 -273
1065 -272 109 1 183 45 219 132 23 55 23 561 0 616 -36 87 -110 131 -219 132
-90 0 -244 23 -367 55 -110 28 -155 31 -201 11 -18 -7 -104 -68 -191 -134
l-159 -119 -61 35 c-272 157 -471 358 -628 632 l-26 46 120 159 c66 88 127
174 134 192 20 47 17 106 -11 208 -28 99 -55 284 -55 373 -1 95 -49 172 -132
206 -31 13 -86 16 -310 16 -244 0 -277 -2 -313 -19z"/>
</g>
</svg>
