<?xml version="1.0" standalone="no"?>
<!DOCTYPE svg PUBLIC "-//W3C//DTD SVG 20010904//EN"
 "http://www.w3.org/TR/2001/REC-SVG-20010904/DTD/svg10.dtd">
<svg version="1.0" xmlns="http://www.w3.org/2000/svg"
 width="128.000000pt" height="128.000000pt" viewBox="0 0 128.000000 128.000000"
 preserveAspectRatio="xMidYMid meet">

<g transform="translate(0.000000,128.000000) scale(0.100000,-0.100000)"
fill="#fff" stroke="none">
<path d="M705 1266 c-154 -49 -204 -142 -205 -378 l0 -78 -95 0 -95 0 0 -115
0 -115 95 0 95 0 0 -290 0 -290 120 0 120 0 0 290 0 289 98 3 97 3 12 85 c6
47 12 97 12 113 l1 27 -110 0 -110 0 0 98 c0 113 10 136 68 152 20 5 65 10
100 10 l62 0 0 99 0 99 -31 6 c-52 10 -191 6 -234 -8z"/>
</g>
</svg>
