<?xml version="1.0" encoding="utf-8"?>
<!-- Generator: Adobe Illustrator 24.1.1, SVG Export Plug-In . SVG Version: 6.00 Build 0)  -->
<svg fill="#a5a5a5" version="1.1" id="Layer_1" xmlns="http://www.w3.org/2000/svg" x="0px" y="0px"
	 viewBox="0 0 512 512" style="enable-background:new 0 0 512 512;" xml:space="preserve">
<g>
	<path d="M32,128h224c17.7,0,32-14.3,32-32c0-17.7-14.3-32-32-32H32C14.3,64,0,78.3,0,96C0,113.7,14.3,128,32,128z M160,32v64
		l0.2,3.3c1,9.8,1.5,19.4,1.5,29c0.1,49.2-13.1,95.1-34,129c-21,34.2-48.6,55.3-77.5,61.1l0,0c-5.5,1.1-11,1.7-16.5,1.7l-1.3,0
		C14.8,319.8,0.2,333.9,0,351.6c-0.2,17.7,13.9,32.2,31.6,32.4l2.2,0c9.8,0,19.5-1,29.1-2.9l0,0c50.8-10.4,91.7-45.2,119.4-90.3
		c27.8-45.4,43.4-102.1,43.4-162.5c0-11.7-0.6-23.6-1.8-35.6L192,96h32V32c0-17.7-14.3-32-32-32S160,14.3,160,32z M32,223.9l0,0.2
		c0,24.6,8.7,47.8,22.6,67.1c21,29.1,53,51,91.1,66.7c38.3,15.6,83.3,24.8,131.8,26c17.7,0.4,32.3-13.5,32.8-31.2
		c0.4-17.7-13.5-32.3-31.2-32.8c-55.1-1.3-103.9-15.3-136.5-34.8c-16.3-9.7-28.5-20.7-36-31.2C99.1,243.3,96,233.8,96,224.1l0-0.1
		c0-17.7-14.3-32-31.9-32.1C46.4,192,32,206.3,32,223.9L32,223.9z"/>
	<path d="M253.2,493L352,270.8L450.8,493c7.2,16.1,26.1,23.4,42.2,16.2c16.1-7.2,23.4-26.1,16.2-42.2l-128-288
		c-5.1-11.6-16.6-19-29.2-19c-12.6,0-24.1,7.4-29.2,19l-128,288c-7.2,16.1,0.1,35.1,16.2,42.2C227.1,516.4,246.1,509.1,253.2,493
		L253.2,493z M451.2,384H252.8c-17.7,0-32,14.3-32,32c0,17.7,14.3,32,32,32h198.4c17.7,0,32-14.3,32-32
		C483.2,398.3,468.9,384,451.2,384z"/>
</g>
</svg>
