<?xml version="1.0" standalone="no"?>
<!DOCTYPE svg PUBLIC "-//W3C//DTD SVG 20010904//EN"
 "http://www.w3.org/TR/2001/REC-SVG-20010904/DTD/svg10.dtd">
<svg version="1.0" xmlns="http://www.w3.org/2000/svg"
 width="64.000000pt" height="64.000000pt" viewBox="0 0 64.000000 64.000000"
 preserveAspectRatio="xMidYMid meet">

<g transform="translate(0.000000,64.000000) scale(0.100000,-0.100000)"
fill="#75c15b" stroke="none">
<path d="M152 561 c-89 -65 -143 -189 -146 -333 -1 -73 2 -90 20 -115 66 -89
199 -87 255 3 26 42 25 119 -1 162 -26 43 -99 76 -146 68 l-33 -7 16 53 c8 29
31 84 50 122 19 37 32 70 30 72 -2 2 -22 -9 -45 -25z"/>
<path d="M461 532 c-85 -84 -121 -180 -121 -319 0 -104 54 -166 146 -166 86 0
149 62 149 148 0 89 -61 151 -146 149 l-50 0 7 30 c3 17 25 73 49 124 24 50
39 92 34 92 -6 0 -37 -26 -68 -58z"/>
</g>
</svg>
