<?xml version="1.0" standalone="no"?>
<!DOCTYPE svg PUBLIC "-//W3C//DTD SVG 20010904//EN"
 "http://www.w3.org/TR/2001/REC-SVG-20010904/DTD/svg10.dtd">
<svg version="1.0" xmlns="http://www.w3.org/2000/svg"
 width="256.000000pt" height="256.000000pt" viewBox="0 0 256.000000 256.000000"
 preserveAspectRatio="xMidYMid meet">

<g transform="translate(0.000000,256.000000) scale(0.100000,-0.100000)"
fill="#fff" stroke="none">
<path d="M845 2545 c-209 -37 -395 -134 -546 -284 -395 -396 -396 -1032 -1
-1427 80 -80 206 -169 296 -209 213 -94 466 -114 686 -54 91 24 258 104 320
152 l45 35 375 -373 c408 -406 409 -407 479 -371 42 22 65 68 56 115 -6 31
-61 90 -380 411 l-373 375 35 45 c48 62 128 229 152 320 60 220 40 473 -54
686 -91 206 -287 401 -501 501 -171 78 -408 110 -589 78z m250 -205 c321 -36
583 -250 681 -555 31 -98 43 -267 25 -370 -58 -330 -306 -585 -633 -651 -116
-23 -284 -15 -393 20 -425 137 -659 595 -519 1015 96 289 359 505 657 540 39
5 77 9 82 10 6 0 51 -4 100 -9z"/>
</g>
</svg>
