<?xml version="1.0" encoding="utf-8"?>
<!-- Generator: Adobe Illustrator 24.1.1, SVG Export Plug-In . SVG Version: 6.00 Build 0)  -->
<svg version="1.1" id="Layer_1" xmlns="http://www.w3.org/2000/svg" x="0px" y="0px"
	 viewBox="0 0 512 512" style="enable-background:new 0 0 512 512;" xml:space="preserve">
<g>
	<path d="M512,469.8v16.6c0,14.1-11.5,25.6-25.6,25.6h-51.2C194.9,512,0,317.1,0,76.8V25.6C0,11.5,11.5,0,25.6,0H128
		c14.1,0,25.6,11.5,25.6,25.6V128c0,14.3-7.9,33.5-17.9,43.5l-54.8,54.8c38.9,92.2,112.6,165.9,204.8,204.8l54.3-54.3
		c10.3-10.3,29.5-18.2,43.5-18.2h102.9c14,0.1,25.4,11.6,25.4,25.6V470L512,469.8z"/>
</g>
</svg>
