<?xml version="1.0" standalone="no"?>
<!DOCTYPE svg PUBLIC "-//W3C//DTD SVG 20010904//EN"
 "http://www.w3.org/TR/2001/REC-SVG-20010904/DTD/svg10.dtd">
<svg version="1.0" xmlns="http://www.w3.org/2000/svg"
 width="50.000000pt" height="50.000000pt" viewBox="0 0 50.000000 50.000000"
 preserveAspectRatio="xMidYMid meet">

<g transform="translate(0.000000,50.000000) scale(0.100000,-0.100000)"
fill="#808080" stroke="none">
<path d="M20 300 l0 -150 180 0 180 0 0 150 0 150 -180 0 -180 0 0 -150z m340
48 l0 -82 -30 29 -30 29 -45 -44 c-43 -42 -77 -51 -40 -10 17 19 16 21 -25 70
-23 27 -45 50 -49 50 -5 0 -16 -9 -27 -21 -10 -12 -31 -30 -46 -41 l-28 -19 0
60 0 61 160 0 160 0 0 -82z"/>
<path d="M284 389 c-10 -17 13 -36 27 -22 12 12 4 33 -11 33 -5 0 -12 -5 -16
-11z"/>
<path d="M408 259 l4 -140 -171 3 c-132 2 -171 0 -171 -9 0 -10 43 -13 180
-13 l180 0 0 150 c0 113 -3 150 -12 150 -10 0 -12 -33 -10 -141z"/>
<path d="M458 209 l4 -140 -171 3 c-132 2 -171 0 -171 -9 0 -10 43 -13 180
-13 l180 0 0 150 c0 113 -3 150 -12 150 -10 0 -12 -33 -10 -141z"/>
</g>
</svg>
