<?xml version="1.0" standalone="no"?>
<!DOCTYPE svg PUBLIC "-//W3C//DTD SVG 20010904//EN"
 "http://www.w3.org/TR/2001/REC-SVG-20010904/DTD/svg10.dtd">
<svg version="1.0" xmlns="http://www.w3.org/2000/svg"
 width="66.000000pt" height="66.000000pt" viewBox="0 0 66.000000 66.000000"
 preserveAspectRatio="xMidYMid meet">

<g transform="translate(0.000000,66.000000) scale(0.100000,-0.100000)"
fill="#808080" stroke="none">
<path d="M59 619 c-43 -16 -49 -45 -49 -238 0 -165 2 -180 21 -205 12 -15 30
-26 45 -26 22 0 24 -4 24 -44 0 -27 6 -51 16 -60 19 -19 29 -15 125 56 l67 48
146 0 c143 0 148 1 171 25 25 24 25 26 25 204 0 198 -6 224 -53 241 -38 13
-502 12 -538 -1z m302 -114 c13 -21 31 -37 48 -41 14 -3 32 -7 39 -10 19 -5
14 -39 -8 -59 -16 -14 -20 -29 -18 -63 2 -54 -13 -66 -59 -44 -30 14 -36 14
-66 0 -46 -22 -70 -8 -62 36 5 25 1 41 -19 71 -29 42 -22 65 18 65 26 0 46 15
69 53 23 36 33 34 58 -8z"/>
</g>
</svg>
