<?xml version="1.0" encoding="UTF-8"?>
<!DOCTYPE svg PUBLIC "-//W3C//DTD SVG 1.1//EN" "http://www.w3.org/Graphics/SVG/1.1/DTD/svg11.dtd">
<svg xmlns="http://www.w3.org/2000/svg" version="1.1" width="128px" height="128px" style="shape-rendering:geometricPrecision; text-rendering:geometricPrecision; image-rendering:optimizeQuality; fill-rule:evenodd; clip-rule:evenodd" xmlns:xlink="http://www.w3.org/1999/xlink">
<g><path style="opacity:0.963" fill="#fff" d="M 127.5,23.5 C 127.5,24.1667 127.5,24.8333 127.5,25.5C 123.862,29.9696 119.695,33.9696 115,37.5C 114.307,77.1102 95.1403,102.61 57.5,114C 36.8172,118.494 17.4839,115.327 -0.5,104.5C -0.5,104.167 -0.5,103.833 -0.5,103.5C 12.6071,104.39 24.6071,101.224 35.5,94C 24.9699,91.6367 17.6366,85.47 13.5,75.5C 16.4465,74.6786 19.4465,74.1786 22.5,74C 10.4978,69.1453 4.66446,60.3119 5,47.5C 14.9,52.3227 15.9,50.9893 8,43.5C 3.23778,34.0625 3.40445,24.7291 8.5,15.5C 22.2382,31.787 39.7382,41.1204 61,43.5C 60.8114,20.0319 72.3114,9.53189 95.5,12C 100.38,13.3549 104.547,15.8549 108,19.5C 113.457,17.2364 118.957,15.4031 124.5,14C 122.648,18.523 119.982,22.523 116.5,26C 120.229,25.7073 123.896,24.874 127.5,23.5 Z"/></g>
</svg>
