<?xml version="1.0" standalone="no"?>
<!DOCTYPE svg PUBLIC "-//W3C//DTD SVG 20010904//EN"
 "http://www.w3.org/TR/2001/REC-SVG-20010904/DTD/svg10.dtd">
<svg version="1.0" xmlns="http://www.w3.org/2000/svg"
 width="200.000000pt" height="200.000000pt" viewBox="0 0 200.000000 200.000000"
 preserveAspectRatio="xMidYMid meet">

<g transform="translate(0.000000,200.000000) scale(0.100000,-0.100000)"
fill="#fff" stroke="none">
<path d="M100 1060 c0 -5 6 -10 14 -10 8 0 41 -27 74 -60 48 -49 65 -60 92
-60 27 0 44 11 92 60 45 45 67 60 88 60 21 0 43 -15 88 -60 48 -49 65 -60 92
-60 27 0 44 11 92 60 45 45 67 60 88 60 21 0 43 -15 88 -60 48 -49 65 -60 92
-60 27 0 44 11 92 60 80 79 96 79 176 0 48 -49 65 -60 92 -60 27 0 44 11 92
60 80 79 96 79 176 0 48 -49 65 -60 92 -60 27 0 44 11 92 60 33 33 66 60 74
60 8 0 14 5 14 10 0 25 -38 5 -93 -50 -44 -43 -68 -60 -88 -60 -19 0 -43 16
-87 60 -81 82 -103 82 -185 0 -44 -43 -68 -60 -88 -60 -19 0 -43 16 -87 60
-81 82 -103 82 -185 0 -80 -79 -96 -79 -175 0 -81 82 -103 82 -185 0 -44 -43
-68 -60 -88 -60 -19 0 -43 16 -87 60 -81 82 -103 82 -185 0 -44 -43 -68 -60
-88 -60 -19 0 -43 16 -87 60 -54 55 -92 75 -92 50z"/>
</g>
</svg>
