<?xml version="1.0" standalone="no"?>
<!DOCTYPE svg PUBLIC "-//W3C//DTD SVG 20010904//EN"
 "http://www.w3.org/TR/2001/REC-SVG-20010904/DTD/svg10.dtd">
<svg version="1.0" xmlns="http://www.w3.org/2000/svg"
 width="128.000000pt" height="128.000000pt" viewBox="0 0 128.000000 128.000000"
 preserveAspectRatio="xMidYMid meet">

<g transform="translate(0.000000,128.000000) scale(0.100000,-0.100000)"
fill="#fff" stroke="none">
<path d="M509 1225 c-220 -54 -392 -227 -444 -449 -29 -120 -13 -269 39 -378
l24 -50 -39 -142 c-21 -77 -39 -146 -39 -153 0 -7 54 3 154 29 l153 40 64 -25
c230 -91 465 -43 640 132 147 147 206 338 164 534 -49 231 -229 415 -452 462
-84 18 -190 18 -264 0z m232 -95 c163 -31 310 -160 370 -326 32 -86 31 -236
-1 -319 -111 -286 -402 -408 -679 -284 l-66 29 -88 -24 c-48 -13 -87 -21 -87
-18 0 4 11 45 23 91 l23 84 -27 51 c-196 362 125 793 532 716z"/>
<path d="M382 886 c-69 -78 -49 -177 61 -314 116 -143 300 -235 406 -204 49
15 89 58 93 101 3 32 -1 37 -37 58 -22 13 -57 28 -78 35 -37 11 -39 11 -68
-25 -17 -20 -38 -37 -47 -37 -31 0 -119 58 -161 106 -52 60 -59 85 -32 120 28
35 27 52 -8 129 -28 62 -31 65 -64 65 -27 0 -42 -8 -65 -34z"/>
</g>
</svg>
