<?xml version="1.0" standalone="no"?>
<!DOCTYPE svg PUBLIC "-//W3C//DTD SVG 20010904//EN"
 "http://www.w3.org/TR/2001/REC-SVG-20010904/DTD/svg10.dtd">
<svg version="1.0" xmlns="http://www.w3.org/2000/svg"
 width="256.000000pt" height="256.000000pt" viewBox="0 0 256.000000 256.000000"
 preserveAspectRatio="xMidYMid meet">

<g transform="translate(0.000000,256.000000) scale(0.100000,-0.100000)"
fill="#000000" stroke="none">
<path d="M1603 2550 c-27 -11 -53 -42 -468 -573 l-340 -434 -378 -251 c-403
-269 -422 -285 -414 -354 7 -52 576 -902 620 -925 52 -26 93 -12 225 76 67 44
125 81 128 81 4 0 30 -17 58 -39 92 -69 130 -77 185 -39 18 13 122 138 231
278 l199 255 418 280 c229 154 426 293 437 308 39 53 29 92 -55 219 l-76 114
88 113 c52 67 91 127 95 146 13 70 2 81 -427 416 -222 174 -414 321 -426 327
-25 14 -69 15 -100 2z m362 -296 c512 -400 515 -402 515 -427 0 -20 -129 -198
-149 -205 -4 -1 -94 126 -200 283 -106 157 -204 293 -217 302 -14 8 -43 16
-65 16 -34 0 -65 -17 -224 -123 -101 -67 -186 -129 -190 -138 -3 -9 3 -24 14
-36 20 -19 20 -19 60 7 22 15 42 27 45 27 2 0 21 -16 42 -36 118 -109 296
-136 455 -70 13 6 38 -24 113 -133 53 -77 96 -143 96 -147 0 -4 -18 -27 -41
-51 -64 -70 -92 -142 -97 -248 -3 -73 0 -102 17 -154 12 -35 21 -64 19 -66 -2
-1 -269 -180 -594 -398 l-591 -396 -34 35 c-19 20 -68 52 -108 72 -72 35 -80
37 -175 37 -82 0 -110 -4 -149 -22 l-47 -22 -91 135 c-49 74 -92 141 -95 148
-3 8 11 31 31 52 19 22 50 68 67 103 44 87 51 205 18 300 -17 53 -19 66 -8 76
7 7 224 153 481 325 434 290 468 315 465 339 -6 49 -39 39 -171 -51 -152 -105
-152 -105 -141 -86 5 8 144 186 309 396 253 323 304 382 325 382 18 0 112 -68
315 -226z m-89 -112 c12 -8 132 -184 140 -207 4 -10 -10 -19 -52 -31 -107 -31
-248 2 -317 74 l-28 29 108 71 c105 70 127 79 149 64z m507 -745 c37 -57 67
-113 67 -125 0 -16 -25 -38 -105 -92 -57 -38 -109 -70 -114 -70 -6 0 -18 26
-27 57 -29 98 -6 210 62 298 14 19 31 35 38 35 6 0 41 -47 79 -103z m-2058
-341 c13 -46 16 -80 11 -120 -8 -62 -53 -161 -90 -195 l-24 -23 -71 106 c-39
58 -71 114 -71 124 0 10 10 28 23 39 26 24 189 133 198 133 4 0 15 -29 24 -64z
m1068 -637 c-26 -34 -82 -104 -123 -156 -102 -130 -105 -132 -165 -90 -27 18
-50 37 -52 43 -2 7 372 264 385 264 2 0 -18 -27 -45 -61z m-622 -105 c43 -14
129 -76 129 -93 0 -16 -200 -141 -225 -141 -20 0 -37 19 -96 107 -67 99 -70
107 -54 120 10 7 35 15 54 19 20 3 41 7 46 9 17 7 97 -5 146 -21z"/>
<path d="M1900 1584 c-81 -55 -95 -68 -95 -92 0 -47 34 -39 139 30 97 64 117
88 96 113 -20 24 -40 17 -140 -51z"/>
<path d="M1150 1593 c-46 -8 -165 -71 -212 -112 -125 -110 -190 -299 -158
-456 30 -148 134 -286 264 -350 44 -22 89 -37 116 -38 44 -2 45 -1 45 28 0 27
-5 31 -60 50 -33 12 -75 29 -94 39 -57 30 -130 112 -164 184 -30 63 -32 74
-32 177 0 104 2 114 32 176 128 262 482 318 679 107 202 -216 128 -550 -150
-673 -60 -27 -76 -46 -56 -70 18 -22 45 -18 119 17 186 88 302 304 272 506
-37 251 -240 425 -490 421 -47 -1 -97 -4 -111 -6z"/>
<path d="M1062 1398 c-15 -15 -15 -41 0 -56 10 -10 10 -17 -1 -34 -39 -63 -32
-134 19 -183 25 -24 41 -30 91 -33 l60 -4 50 -74 c27 -41 47 -79 44 -84 -3 -6
-17 -10 -31 -10 -35 0 -64 -17 -64 -38 0 -42 43 -52 113 -28 35 13 39 12 50
-5 28 -45 88 -7 62 40 -11 21 -10 29 7 58 26 44 27 121 2 164 -33 56 -67 74
-141 74 l-65 0 -39 55 c-21 30 -38 58 -39 63 0 4 13 7 29 7 34 0 55 22 46 48
-7 25 -35 32 -82 21 -32 -7 -40 -6 -52 11 -15 23 -41 26 -59 8z m86 -183 c24
-38 28 -55 12 -55 -19 0 -50 40 -50 65 0 34 11 31 38 -10z m233 -124 c29 -29
38 -72 20 -99 -5 -9 -20 5 -49 49 -22 35 -39 66 -36 71 10 16 36 7 65 -21z"/>
<path d="M585 703 c-82 -56 -100 -73 -100 -93 0 -19 6 -26 24 -28 31 -5 221
121 221 146 0 20 -18 42 -35 42 -6 0 -56 -30 -110 -67z"/>
</g>
</svg>
