<?xml version="1.0" standalone="no"?>
<!DOCTYPE svg PUBLIC "-//W3C//DTD SVG 20010904//EN"
 "http://www.w3.org/TR/2001/REC-SVG-20010904/DTD/svg10.dtd">
<svg version="1.0" xmlns="http://www.w3.org/2000/svg"
 width="256.000000pt" height="256.000000pt" viewBox="0 0 256.000000 256.000000"
 preserveAspectRatio="xMidYMid meet">

<g transform="translate(0.000000,256.000000) scale(0.100000,-0.100000)"
fill="#000000" stroke="none">
<path d="M1213 2542 c-18 -9 -69 -48 -115 -85 -175 -144 -343 -212 -585 -237
-61 -7 -128 -20 -153 -31 -60 -26 -114 -80 -142 -143 -23 -50 -23 -57 -22
-366 1 -341 13 -476 59 -663 101 -409 344 -711 725 -902 124 -62 261 -115 300
-115 39 0 176 53 300 115 424 213 674 561 755 1052 23 135 38 423 33 636 -4
173 -6 197 -27 243 -44 100 -130 157 -256 169 -284 27 -457 99 -665 276 -83
72 -143 87 -207 51z m126 -181 c200 -174 428 -267 724 -296 69 -6 110 -25 134
-62 35 -54 27 -602 -12 -826 -86 -489 -350 -809 -822 -996 l-82 -33 -83 32
c-447 173 -713 478 -811 935 -32 148 -41 263 -41 560 -1 271 1 303 17 328 24
36 64 56 134 62 295 29 519 120 716 291 34 29 64 54 66 54 3 0 30 -22 60 -49z"/>
<path d="M1172 1909 c-120 -20 -251 -89 -342 -179 -249 -250 -249 -650 0 -900
326 -326 872 -210 1044 222 180 453 -217 937 -702 857z m259 -168 c201 -69
333 -252 333 -461 0 -374 -409 -609 -729 -418 -233 139 -309 434 -173 663 73
123 201 210 348 239 47 9 165 -3 221 -23z"/>
<path d="M1325 1340 l-161 -160 -49 50 c-39 40 -56 50 -82 50 -41 0 -73 -33
-73 -74 0 -43 163 -206 206 -206 24 0 63 34 226 198 215 215 223 228 173 277
-48 49 -64 39 -240 -135z"/>
</g>
</svg>
