<?xml version="1.0" standalone="no"?>
<!DOCTYPE svg PUBLIC "-//W3C//DTD SVG 20010904//EN"
 "http://www.w3.org/TR/2001/REC-SVG-20010904/DTD/svg10.dtd">
<svg version="1.0" xmlns="http://www.w3.org/2000/svg"
 width="256.000000pt" height="256.000000pt" viewBox="0 0 256.000000 256.000000"
 preserveAspectRatio="xMidYMid meet">

<g transform="translate(0.000000,256.000000) scale(0.100000,-0.100000)"
fill="#000000" stroke="none">
<path d="M1243 2550 c-42 -17 -53 -58 -53 -203 0 -74 5 -149 11 -167 25 -72
133 -72 158 0 17 52 14 294 -4 331 -22 42 -66 58 -112 39z"/>
<path d="M395 2198 c-31 -18 -44 -40 -45 -77 0 -30 13 -47 106 -142 59 -59
119 -113 135 -120 58 -23 124 33 111 96 -2 13 -57 75 -121 139 -121 119 -140
130 -186 104z"/>
<path d="M1979 2094 c-67 -67 -119 -126 -122 -140 -6 -35 23 -86 56 -97 45
-14 76 6 191 122 93 95 106 112 106 142 -1 38 -14 60 -47 77 -46 25 -63 15
-184 -104z"/>
<path d="M1125 1904 c-108 -26 -202 -81 -291 -169 -68 -67 -89 -95 -127 -175
-53 -110 -67 -170 -67 -280 0 -110 14 -170 67 -280 64 -134 159 -229 293 -293
111 -53 170 -67 283 -67 176 0 316 59 443 185 68 67 89 95 127 175 53 111 67
171 67 283 0 176 -59 316 -185 443 -67 68 -95 89 -175 127 -52 25 -119 50
-148 56 -72 15 -214 12 -287 -5z m280 -176 c275 -69 417 -388 291 -654 -162
-342 -670 -342 -832 0 -173 366 147 753 541 654z"/>
<path d="M43 1350 c-60 -36 -52 -126 13 -150 35 -14 284 -12 324 1 72 25 72
133 0 158 -19 6 -93 11 -169 11 -117 0 -140 -3 -168 -20z"/>
<path d="M2174 1356 c-67 -29 -62 -131 6 -155 19 -6 93 -11 169 -11 117 0 141
3 168 19 56 35 53 115 -6 146 -40 20 -291 21 -337 1z"/>
<path d="M575 691 c-16 -10 -74 -63 -127 -118 -86 -87 -98 -105 -98 -134 1
-51 39 -89 91 -89 28 0 255 222 261 255 7 35 -18 84 -47 95 -36 14 -46 13 -80
-9z"/>
<path d="M1879 681 c-54 -54 -39 -89 98 -223 105 -103 139 -121 182 -97 36 21
56 59 47 94 -4 17 -47 70 -104 128 -134 137 -169 152 -223 98z"/>
<path d="M1244 426 c-45 -20 -54 -57 -54 -215 0 -117 3 -141 19 -168 35 -56
115 -53 146 6 11 23 15 63 15 164 0 158 -9 194 -56 213 -39 16 -32 16 -70 0z"/>
</g>
</svg>
