<?xml version="1.0" standalone="no"?>
<!DOCTYPE svg PUBLIC "-//W3C//DTD SVG 20010904//EN"
 "http://www.w3.org/TR/2001/REC-SVG-20010904/DTD/svg10.dtd">
<svg version="1.0" xmlns="http://www.w3.org/2000/svg"
 width="256.000000pt" height="256.000000pt" viewBox="0 0 256.000000 256.000000"
 preserveAspectRatio="xMidYMid meet">

<g transform="translate(0.000000,256.000000) scale(0.100000,-0.100000)"
fill="#000000" stroke="none">
<path d="M1153 2550 c-314 -57 -562 -308 -612 -621 -6 -35 -11 -154 -11 -264
0 -224 7 -252 67 -290 28 -18 32 -25 33 -65 0 -91 57 -152 150 -165 43 -6 53
-11 66 -38 9 -18 32 -51 50 -74 l34 -42 -42 -85 -42 -86 -111 -36 c-228 -76
-301 -118 -409 -236 -107 -117 -174 -272 -191 -441 -13 -119 -146 -107 1145
-107 1291 0 1158 -12 1145 107 -17 169 -84 324 -191 441 -108 118 -181 160
-409 236 l-111 36 -42 86 -42 85 34 42 c45 55 90 148 106 217 6 30 14 62 16
71 3 12 22 18 70 22 73 7 116 27 148 70 20 27 21 40 21 270 0 258 -5 298 -53
412 -91 214 -280 379 -507 442 -64 17 -244 25 -312 13z m262 -105 c119 -25
228 -86 320 -179 109 -109 169 -226 188 -368 l6 -38 -50 0 c-44 0 -49 2 -49
23 0 41 -30 140 -61 204 -17 36 -54 87 -88 121 -105 104 -231 152 -401 152
-274 0 -471 -145 -535 -395 -8 -32 -15 -70 -15 -82 0 -21 -5 -23 -49 -23 l-50
0 6 38 c19 142 79 259 188 368 63 64 98 90 165 123 139 68 279 87 425 56z
m-14 -195 c188 -36 329 -210 329 -406 l0 -34 -42 6 c-160 25 -319 95 -426 189
-69 60 -82 63 -174 44 -73 -16 -152 -56 -209 -106 l-47 -43 9 41 c33 144 148
265 289 303 65 17 195 20 271 6z m-193 -331 c105 -92 265 -164 430 -195 l88
-16 -3 -56 c-7 -101 -34 -305 -49 -371 -76 -333 -465 -448 -684 -203 l-51 57
47 3 c43 3 50 0 72 -28 39 -50 77 -64 172 -65 94 0 135 16 174 68 29 39 29
125 0 164 -39 52 -80 68 -174 68 -96 -1 -135 -16 -172 -65 -21 -28 -25 -30
-94 -30 l-72 0 -11 51 c-12 53 -37 260 -44 366 -5 62 -5 63 44 127 64 85 144
139 234 159 40 9 48 6 93 -34z m-474 -221 c3 -35 9 -105 13 -155 l9 -93 -51 0
c-28 0 -56 5 -63 12 -8 8 -12 57 -12 155 l0 143 49 0 49 0 6 -62z m1196 -81
c0 -98 -4 -147 -12 -155 -7 -7 -35 -12 -63 -12 l-51 0 9 93 c4 50 10 120 13
155 l6 62 49 0 49 0 0 -143z m-1155 -304 c4 -16 8 -36 10 -45 2 -12 -3 -18
-14 -18 -26 0 -41 21 -41 57 0 26 4 33 20 33 13 0 21 -9 25 -27z m543 -85 c7
-7 12 -21 12 -33 0 -36 -20 -45 -100 -45 -80 0 -100 9 -100 45 0 36 20 45 100
45 46 0 81 -5 88 -12z m277 -388 l29 -61 -18 -53 c-10 -29 -35 -87 -55 -130
l-36 -77 -84 85 -84 84 103 111 c57 60 106 108 109 106 4 -2 20 -31 36 -65z
m-470 -240 l-80 -81 -36 77 c-20 43 -45 101 -55 131 l-18 53 28 57 27 56 107
-106 107 -107 -80 -80z m194 204 c-24 -24 -44 -44 -44 -44 0 0 -20 20 -44 44
l-43 44 87 0 87 0 -43 -44z m-378 -289 c37 -77 97 -184 133 -238 36 -54 77
-115 91 -137 l25 -40 -479 0 -480 0 6 38 c17 121 86 265 172 356 87 91 153
128 336 190 l100 33 14 -31 c8 -17 45 -94 82 -171z m1024 114 c181 -82 329
-285 358 -492 l6 -37 -480 0 -480 0 34 52 c18 29 59 91 90 137 60 88 144 249
192 362 l27 67 112 -38 c61 -21 125 -44 141 -51z m-592 -342 c-48 -75 -90
-136 -93 -136 -5 0 -171 252 -178 269 -2 4 36 49 84 100 l88 91 94 -94 94 -94
-89 -136z"/>
<path d="M1797 562 c-22 -24 -21 -45 1 -65 24 -22 45 -21 65 1 22 24 21 45 -1
65 -24 22 -45 21 -65 -1z"/>
<path d="M1972 468 c-21 -21 -13 -53 24 -89 20 -18 52 -58 71 -87 39 -60 54
-69 89 -54 34 16 31 53 -11 117 -67 100 -139 147 -173 113z"/>
</g>
</svg>
